Coordinates
version=1
nRows=13
nColumns=40
inDegrees=yes

Units are S.I. units (second, meters, Newtons, ...)
Angles are in degrees.

endheader
time	pelvis_tilt	pelvis_list	pelvis_rotation	pelvis_tx	pelvis_ty	pelvis_tz	hip_flexion_r	hip_adduction_r	hip_rotation_r	knee_angle_r	knee_angle_r_beta	ankle_angle_r	subtalar_angle_r	mtp_angle_r	hip_flexion_l	hip_adduction_l	hip_rotation_l	knee_angle_l	knee_angle_l_beta	ankle_angle_l	subtalar_angle_l	mtp_angle_l	lumbar_extension	lumbar_bending	lumbar_rotation	arm_flex_r	arm_add_r	arm_rot_r	elbow_flex_r	pro_sup_r	wrist_flex_r	wrist_dev_r	arm_flex_l	arm_add_l	arm_rot_l	elbow_flex_l	pro_sup_l	wrist_flex_l	wrist_dev_l
     43.12000000	     -2.94594761	     -4.30404033	     -2.34704453	      1.16703812	      0.92070118	      0.53677231	     14.75944322	      5.33615922	     -4.51116222	     26.27794193	     26.27794193	     16.13037895	     -5.19324796	     -2.75959229	     21.60443722	    -14.64267338	      4.88821326	     60.47121420	     60.47121420	      4.07432709	    -16.14939370	      1.96388590	     -9.89206337	      5.25377242	     -1.64542477	      4.18544763	    -16.27374689	     -4.11207228	     57.41439457	     45.30321070	      0.00000000	      0.00000000	     19.80491987	    -12.59275159	     -2.56187468	     43.14470677	     45.52760031	      0.00000000	      0.00000000
     43.14157143	     -2.48676833	     -4.29197135	     -1.82437590	      1.16804297	      0.91831396	      0.53871912	     14.75457481	      5.54526426	     -4.13333713	     27.88263841	     27.88263841	     16.87216156	     -6.92292256	     -2.90573248	     23.29325196	    -14.12646271	      6.42631072	     63.36783207	     63.36783207	      4.03141688	    -17.23327233	      2.39493085	     -9.92106695	      4.86946973	     -1.83067414	      7.08441545	    -15.86372237	     -4.12221751	     59.71568561	     45.23987328	      0.00000000	      0.00000000	     16.41175873	    -11.66776874	     -1.97993369	     40.57944116	     45.43457355	      0.00000000	      0.00000000
     43.16314286	     -1.95315647	     -4.36629286	     -1.28000985	      1.16900360	      0.91594024	      0.54056813	     14.61672498	      5.88966852	     -3.73026280	     29.40881296	     29.40881296	     17.72842821	     -8.65207839	     -2.33718782	     24.96492095	    -13.62425513	      7.88943775	     66.22091573	     66.22091573	      5.37696029	    -17.68890469	      6.14446080	    -10.09730084	      4.61431774	     -1.59268420	      9.64804524	    -16.32031317	     -2.70422721	     63.25808926	     45.09383104	      0.00000000	      0.00000000	     13.91034053	    -10.52622605	     -0.67074749	     36.07239171	     45.33872501	      0.00000000	      0.00000000
     43.18471429	     -1.50768657	     -4.40288179	     -0.66230419	      1.16988223	      0.91350419	      0.54227538	     14.50436196	      6.14168236	     -3.59718250	     30.80220692	     30.80220692	     18.47448039	    -10.04944498	     -2.34206464	     26.52223841	    -13.20839116	      8.98897084	     68.33882557	     68.33882557	      5.74109463	    -18.33525587	      7.01097271	    -10.23655742	      4.28496409	     -1.93301103	     12.96389820	    -15.72706030	     -2.89006142	     65.77440536	     45.03599938	      0.00000000	      0.00000000	     10.43231662	     -9.71571844	     -0.04550497	     33.40404322	     45.23467374	      0.00000000	      0.00000000
     43.20628571	     -1.02107655	     -4.51869482	     -0.01884985	      1.17057802	      0.91145550	      0.54362655	     14.23935180	      6.48315951	     -3.49637227	     31.97029675	     31.97029675	     19.25794571	    -11.29942512	     -1.49386223	     27.99332792	    -12.80682188	      9.95269164	     70.06461380	     70.06461380	      7.51859454	    -18.60707299	     11.36554938	    -10.42853024	      4.11478215	     -1.72234044	     16.12187848	    -16.05720153	     -1.94496909	     68.49872842	     44.94830536	      0.00000000	      0.00000000	      8.04072639	     -8.73683657	      1.41069247	     29.26245916	     45.08275607	      0.00000000	      0.00000000
     43.22785714	     -0.69981312	     -4.64856351	      0.70333566	      1.17103354	      0.90950780	      0.54468138	     14.04636216	      6.75077871	     -3.70407074	     32.88073688	     32.88073688	     19.80916871	    -12.22285837	     -1.49656983	     29.36668411	    -12.66504097	     10.46923152	     70.79096528	     70.79096528	      8.09766675	    -18.95454202	     11.82412429	    -10.53926643	      3.96217072	     -1.64299975	     19.46363666	    -15.79830922	     -2.31973477	     70.71746331	     44.90644580	      0.00000000	      0.00000000	      4.99037580	     -7.95588240	      1.84318886	     27.41145673	     44.98231860	      0.00000000	      0.00000000
     43.24942857	     -0.46976793	     -4.72226799	      1.49263350	      1.17121657	      0.90823450	      0.54516578	     13.77744033	      6.96207740	     -3.86176290	     33.42379480	     33.42379480	     20.44045471	    -13.07744099	     -0.49616101	     30.68564724	    -12.32695124	     10.89462566	     70.86769538	     70.86769538	      9.96826826	    -19.11356986	     15.78711974	    -10.60981536	      3.82158337	     -1.65044233	     22.62750599	    -16.00317701	     -1.53588747	     73.64977450	     44.82473166	      0.00000000	      0.00000000	      2.42861325	     -7.29514198	      3.49657522	     24.41823814	     44.72942274	      0.00000000	      0.00000000
     43.27100000	     -0.36294119	     -4.82213999	      2.33882811	      1.17111672	      0.90741851	      0.54524606	     13.48790239	      7.10177183	     -4.27960695	     33.61097839	     33.61097839	     20.74236917	    -13.63661881	     -0.34456868	     31.80092469	    -12.21177288	     10.94167392	     69.88384518	     69.88384518	     10.71835391	    -19.24876765	     16.13104138	    -10.63531948	      3.74384037	     -1.61863867	     25.93109561	    -15.81613664	     -1.91717466	     75.97670397	     44.78154842	      0.00000000	      0.00000000	     -0.34480359	     -6.74127766	      3.94812456	     23.05719542	     44.61021921	      0.00000000	      0.00000000
     43.29257143	     -0.35606891	     -4.87264645	      3.23946145	      1.17069148	      0.90727523	      0.54476886	     13.13813998	      7.14120400	     -4.77713205	     33.42965617	     33.42965617	     20.91484101	    -14.02626433	     -0.08536334	     32.71224633	    -11.99719152	     10.83403597	     68.04345895	     68.04345895	     11.54269653	    -19.30388715	     16.63382285	    -10.60058919	      3.65510046	     -1.54954761	     29.16954471	    -15.85722238	     -2.04618057	     78.44088103	     44.72579923	      0.00000000	      0.00000000	     -2.91450387	     -6.29332283	      4.44532244	     21.91987489	     44.47533899	      0.00000000	      0.00000000
     43.31414286	     -0.51800791	     -4.84997059	      4.18454059	      1.16994753	      0.90766326	      0.54371847	     12.84158737	      7.01558342	     -5.41212959	     32.99835108	     32.99835108	     21.22662173	    -14.04421152	      0.83313077	     33.48834636	    -11.61734582	     10.63769735	     65.42851909	     65.42851909	     12.41668512	    -19.31012338	     17.49118255	    -10.47242826	      3.55809972	     -1.00910308	     31.84053937	    -16.76257188	     -1.78144514	     81.84466717	     44.86765152	      0.00000000	      0.00000000	     -5.94187468	     -7.47630569	     15.67178185	     23.41505767	     42.64143727	      0.00000000	      0.00000000
     43.33571429	     -0.75094154	     -4.77235738	      5.15209717	      1.16893061	      0.90865493	      0.54216676	     12.44386379	      6.78279585	     -6.11304654	     32.19751736	     32.19751736	     21.15539826	    -14.03774211	      0.96453853	     33.94533533	    -11.13793586	     10.34250876	     62.00737784	     62.00737784	     12.79050616	    -19.26530385	     17.39052979	    -10.33054143	      3.41772192	     -0.92513987	     35.05516372	    -16.97327987	     -1.98929756	     84.13084541	     44.82012612	      0.00000000	      0.00000000	     -8.19553027	     -7.20389873	     15.87162421	     22.90489214	     42.59653314	      0.00000000	      0.00000000
     43.35728571	     -1.09476457	     -4.64429651	      6.13644521	      1.16764781	      0.91003809	      0.54012527	     12.04166987	      6.44854780	     -6.86892756	     31.16160653	     31.16160653	     21.01197938	    -13.86473241	      1.09857374	     34.17352135	    -10.50981846	     10.08354450	     57.97837018	     57.97837018	     12.84758972	    -19.12878233	     17.10764102	    -10.13923794	      3.24027833	     -0.75463258	     38.16488784	    -17.41176665	     -2.07579794	     86.32931432	     44.77052959	      0.00000000	      0.00000000	    -10.23658537	     -7.06478205	     16.05033459	     22.71648942	     42.54461251	      0.00000000	      0.00000000
     43.37885714	     -1.50770472	     -4.55519717	      7.11807674	      1.16627691	      0.91159567	      0.53776592	     11.57359863	      6.10562689	     -7.78384458	     29.84352770	     29.84352770	     20.58912080	    -13.54201340	      0.59343022	     34.06562363	    -10.00222609	      9.69180678	     53.24995337	     53.24995337	     11.39231871	    -18.97252689	     13.19548715	     -9.96419864	      3.13801040	     -0.56985183	     40.98720811	    -18.40726430	     -1.30385729	     89.49510304	     44.69739719	      0.00000000	      0.00000000	    -12.77853682	     -7.49070472	     17.18870775	     24.87868138	     42.40654589	      0.00000000	      0.00000000
